<?xml version="1.0" encoding="UTF-8"?>
<svg id="Layer_2" xmlns="http://www.w3.org/2000/svg" viewBox="0 0 732.09 732.09">
  <defs>
    <style>
      .cls-1 {
        fill: #dde9ff;
        fill-rule: evenodd;
      }
    </style>
  </defs>
  <g id="Layer_1-2" data-name="Layer_1">
    <path class="cls-1" d="M0,366.28C-.22,164.68,164,.23,365.79,0c201.56-.24,366.01,163.97,366.31,365.79.3,201.48-164.02,366.02-365.81,366.3C164.76,732.37.21,568.03,0,366.28M365.94,442.05c30.7-29.02,60.34-57.78,81.86-93.71,2-3.31,3.7-6.86,5.18-10.45,8.95-21.74-2.48-45.63-25.02-52.43-16.25-4.92-33.08.63-43.6,14.72-5.41,7.25-11.89,11.82-21.3,10.55-7.3-1-11.77-5.91-16-11.43-10.29-13.47-27.41-18.73-43.39-13.68-16.07,5.08-27.06,19.27-27.82,36.03-.51,11.65,4.73,21.49,10.57,30.88,21.22,34.09,49.61,61.83,79.53,89.51M550.78,512.89c1.23.4,1.98.74,2.74.89,29.15,5.44,58.33,10.74,87.45,16.45,4.2.82,6.07.1,8.12-3.58,16.47-29.3,28.48-60.29,35.14-93.19,3.05-15.15,4.78-30.53,7.15-46.25h-124.74c-1.36,42.64-6.31,84.38-15.85,125.68M550.63,219.54c9.87,41.97,14.53,83.53,16.06,125.67h123.52c.15-1.05.34-1.65.28-2.23-3.52-49.33-17.59-95.47-42.03-138.46-1.72-3.01-3.53-2.94-6.49-2.32-19.99,4.17-40.04,8.21-60.09,12.08-10.19,1.96-20.43,3.46-31.23,5.27M181.36,512.91c-9.62-41.49-14.47-83.43-15.98-125.71H41.8c-.13.97-.25,1.38-.21,1.77.34,3.88.65,7.76,1.05,11.63,4.76,45.2,18.55,87.45,40.92,126.97,1.76,3.14,3.54,3.46,6.89,2.7,12.54-2.89,25.17-5.48,37.83-7.85,17.47-3.3,34.95-6.27,53.07-9.51M165.38,345.21c1.17-42.85,6.54-84.47,15.62-125.09-30.77-6.02-60.65-11.73-90.45-17.85-4.1-.84-5.69.23-7.56,3.56-17.5,31.08-29.75,64.11-36.32,99.14-2.48,13.15-3.82,26.52-5.75,40.25h124.46ZM525.95,386.16c-17.93,0-35.27-.06-52.61.12-1.27,0-2.86,1.47-3.73,2.68-23,32.16-50.72,59.9-80.13,86.12-1.14,1.04-2.76,2.44-2.79,3.74-.3,6.85-.16,13.68-.16,19.92,41.68,2.67,82.42,5.3,123.37,7.96,9.62-39.25,14.64-79.29,16.04-120.55M206.1,386.4c1.51,41.38,6.44,81.39,16.1,120.28,41.38-2.65,82.14-5.28,123.01-7.91.1-.41.36-1,.38-1.6.04-4.7.52-9.47-.06-14.11-.38-2.9-1.63-6.4-3.71-8.25-29.11-25.99-56.72-53.34-79.64-85.13-1.12-1.57-3.5-3.11-5.32-3.14-16.58-.25-33.17-.14-50.76-.14M345.41,44.42c-.76-.09-1.18-.27-1.57-.17-1.37.36-2.75.75-4.11,1.22-18.55,6.7-33.69,18.35-46.87,32.7-27.65,30.15-44.78,66.21-58.12,104.35-.23.67-.02,1.51-.02,3.34,36.99,2.26,73.65,4.5,110.7,6.76V44.42ZM386.41,192.65c37.3-2.29,74.07-4.55,110.96-6.81-.17-2.29-.09-2.93-.27-3.48-10.8-31.07-24.43-60.74-44.09-87.3-13.28-17.95-28.63-33.75-48.73-44.16-5.51-2.86-11.43-4.91-17.86-7.64v149.39ZM345.41,539.66c-37.16,2.31-73.93,4.59-111.61,6.94,9.11,26.84,19.72,50.88,33.63,73.4,11.93,19.3,25.87,36.86,43.97,50.81,10.1,7.76,21.07,13.97,34.01,17.4v-148.56ZM387.41,539.21v149.09c2.78-.91,4.9-1.57,6.98-2.35,18.1-6.72,32.74-18.36,45.62-32.38,25.1-27.29,41.29-59.76,54.32-94.02,1.4-3.74,2.63-7.58,4.49-12.96-37.68-2.34-74.31-4.62-111.41-6.93M540,180.19c27.16-4.91,53.9-9.74,81.23-14.69-26.63-39.89-106.58-97.95-141.98-103.5,28.12,35.04,46.56,74.72,60.75,118.18M251.44,62.45c-56.38,20.85-102.76,55.14-141.21,103.17,28.18,4.99,54.98,9.75,81.86,14.52,14-43.01,32.31-82.45,59.34-117.69M252.35,670.31c-27.77-35.23-46.26-75.12-60.33-118.12-27.05,4.82-53.7,9.57-81.79,14.59,38.83,48.19,85.56,82.53,142.12,103.53M621.58,566.91c-28.11-5.07-54.75-9.87-80.4-14.49-9.04,21.17-16.57,41.74-26.44,61.13-9.91,19.42-22.15,37.64-33.5,56.67,55.57-21.3,101.78-55.38,140.34-103.31M386.41,248.33c31.1-10.33,59.41-6.18,83.48,15.71,23.95,21.81,31.55,49.26,23.3,81.17h32.38c-1.51-40.98-6.39-81.11-16.04-119.8-41.51,2.66-82.1,5.26-123.11,7.9v15.02ZM238.1,345.21c-18.72-60.75,43.92-121.62,107.58-97.15,0-3.1-.28-5.95.07-8.72.71-5.6-1.45-7.08-7.07-7.32-29.23-1.28-58.43-3-87.65-4.76-9.55-.57-19.08-1.7-28.83-2.58-9.53,39.89-14.68,79.87-16,120.54h31.91Z"/>
  </g>
</svg>