<?xml version="1.0" encoding="UTF-8"?>
<svg xmlns="http://www.w3.org/2000/svg" version="1.1" viewBox="0 0 800 800">
  <defs>
    <style>
      .cls-1 {
        fill: #dde9ff;
      }
    </style>
  </defs>
  <!-- Generator: Adobe Illustrator 28.6.0, SVG Export Plug-In . SVG Version: 1.2.0 Build 709)  -->
  <g>
    <g id="Layer_1">
      <circle class="cls-1" cx="402.2" cy="110.9" r="97.2"/>
      <path class="cls-1" d="M763.8,560.6c-1.3-1.9-2.8-3.4-4.4-5l-110.3-102.5-71.3-153.1c-19.4-39.1-47.5-63.4-89.4-63.4h-179.7c-42.2,0-70,24.4-89.4,63.4l-71.2,153.1-110.3,102.5c-1.6,1.6-3.1,3.4-4.4,5-11.3,9.7-18.4,24.1-18.4,40,0,29.1,23.8,52.8,52.8,52.8s32.2-8.1,41.9-20.9c.9-.6,1.9-1.6,2.5-2.2l116.9-108.7c4.4-4.4,7.8-9.4,10.3-15l37.2-79.7-1.9,140.6-163.1,88.7c-29.7,16.3-43.8,51.2-33.1,83.4,10.6,32.2,42.5,52.2,75.9,47.5l244.1-63.1,244.1,63.1c33.4,4.7,65.6-15.3,75.9-47.5,10.6-32.2-3.4-67.2-33.1-83.4l-163.1-89.1-1.9-140.6,37.2,79.7c2.5,5.6,6.2,10.6,10.3,15l116.9,108.7c.9.9,1.6,1.6,2.5,2.2,9.7,12.5,24.7,20.9,41.9,20.9,29.1,0,52.8-23.8,52.8-52.8.3-15.9-6.9-30-18.1-39.7Z"/>
    </g>
  </g>
</svg>